<svg width="50" height="47" viewBox="0 0 50 47" fill="none" xmlns="http://www.w3.org/2000/svg">
<circle cx="35" cy="32" r="15" fill="#079211"/>
<g clip-path="url(#clip0_115_47)">
<path d="M16.5 3.09375C20.0556 3.09375 23.4655 4.50619 25.9797 7.02035C28.4938 9.53451 29.9062 12.9444 29.9062 16.5C29.9062 20.0556 28.4938 23.4655 25.9797 25.9797C23.4655 28.4938 20.0556 29.9062 16.5 29.9062C12.9444 29.9062 9.53451 28.4938 7.02035 25.9797C4.50619 23.4655 3.09375 20.0556 3.09375 16.5C3.09375 12.9444 4.50619 9.53451 7.02035 7.02035C9.53451 4.50619 12.9444 3.09375 16.5 3.09375ZM16.5 33C20.8761 33 25.0729 31.2616 28.1673 28.1673C31.2616 25.0729 33 20.8761 33 16.5C33 12.1239 31.2616 7.92709 28.1673 4.83274C25.0729 1.73839 20.8761 0 16.5 0C12.1239 0 7.92709 1.73839 4.83274 4.83274C1.73839 7.92709 0 12.1239 0 16.5C0 20.8761 1.73839 25.0729 4.83274 28.1673C7.92709 31.2616 12.1239 33 16.5 33ZM12.852 20.148C10.841 18.1371 10.841 14.8693 12.852 12.8584C14.8629 10.8475 18.1307 10.8475 20.1416 12.8584C20.7475 13.4643 21.7271 13.4643 22.3266 12.8584C22.926 12.2525 22.9324 11.2729 22.3266 10.6734C19.1039 7.45078 13.8832 7.45078 10.6605 10.6734C7.43789 13.8961 7.43789 19.1168 10.6605 22.3395C13.8832 25.5621 19.1039 25.5621 22.3266 22.3395C22.9324 21.7336 22.9324 20.7539 22.3266 20.1545C21.7207 19.5551 20.741 19.5486 20.1416 20.1545C18.1307 22.1654 14.8629 22.1654 12.852 20.1545V20.148Z" fill="white"/>
</g>
<defs>
<clipPath id="clip0_115_47">
<rect width="33" height="33" fill="white"/>
</clipPath>
</defs>
</svg>
