<svg width="50" height="47" viewBox="0 0 50 47" fill="none" xmlns="http://www.w3.org/2000/svg">
<circle cx="35" cy="32" r="15" fill="#079211"/>
<g clip-path="url(#clip0_115_33)">
<path d="M3.16312 4.38375C3.15656 4.33125 3.15 4.27219 3.15 4.21969C3.15 4.21313 3.15 4.21312 3.15 4.20656C3.15 3.62906 3.6225 3.15656 4.2 3.15656C4.25906 3.15656 4.32469 3.16312 4.38375 3.16969C4.87594 3.24844 5.25 3.68156 5.25 4.2C5.25 4.7775 4.7775 5.25 4.2 5.25C3.68156 5.25 3.24844 4.87594 3.16312 4.38375ZM0 4.2C0 5.96531 1.08281 7.47469 2.625 8.09156V15.0084C1.08281 15.6253 0 17.1347 0 18.9C0 21.2166 1.88344 23.1 4.2 23.1C5.96531 23.1 7.47469 22.0172 8.09156 20.475H21.3084C21.9319 22.0172 23.4412 23.1 25.2 23.1C27.5166 23.1 29.4 21.2166 29.4 18.9C29.4 17.1347 28.3172 15.6253 26.775 15.0084V8.09156C28.3172 7.46812 29.4 5.95875 29.4 4.2C29.4 1.88344 27.5166 0 25.2 0C23.4347 0 21.9253 1.08281 21.3084 2.625H8.09156C7.47469 1.08281 5.96531 0 4.2 0C1.88344 0 0 1.88344 0 4.2ZM24.15 4.2C24.15 3.92152 24.2606 3.65445 24.4575 3.45754C24.6544 3.26062 24.9215 3.15 25.2 3.15C25.4785 3.15 25.7455 3.26062 25.9425 3.45754C26.1394 3.65445 26.25 3.92152 26.25 4.2C26.25 4.47848 26.1394 4.74555 25.9425 4.94246C25.7455 5.13937 25.4785 5.25 25.2 5.25C24.9215 5.25 24.6544 5.13937 24.4575 4.94246C24.2606 4.74555 24.15 4.47848 24.15 4.2ZM21.3084 5.775C21.735 6.825 22.575 7.67156 23.625 8.09156V15.0084C22.575 15.435 21.7284 16.275 21.3084 17.325H8.09156C7.665 16.275 6.825 15.4284 5.775 15.0084V8.09156C6.825 7.665 7.67156 6.825 8.09156 5.775H21.3084ZM25.2 17.85C25.4785 17.85 25.7455 17.9606 25.9425 18.1575C26.1394 18.3545 26.25 18.6215 26.25 18.9C26.25 19.1785 26.1394 19.4455 25.9425 19.6425C25.7455 19.8394 25.4785 19.95 25.2 19.95C24.9215 19.95 24.6544 19.8394 24.4575 19.6425C24.2606 19.4455 24.15 19.1785 24.15 18.9C24.15 18.6215 24.2606 18.3545 24.4575 18.1575C24.6544 17.9606 24.9215 17.85 25.2 17.85ZM5.25 18.9C5.25 19.4184 4.87594 19.8516 4.38375 19.9369C4.33125 19.9434 4.27219 19.95 4.21969 19.95H4.20656C3.62906 19.95 3.15656 19.4775 3.15656 18.9C3.15656 18.8409 3.16312 18.7753 3.16969 18.7162C3.24844 18.2241 3.68156 17.85 4.2 17.85C4.7775 17.85 5.25 18.3225 5.25 18.9ZM30.9291 16.275H33.9084C34.335 17.325 35.175 18.1716 36.225 18.5916V25.5084C35.175 25.935 34.3284 26.775 33.9084 27.825H20.6916C20.265 26.775 19.425 25.9284 18.375 25.5084V23.1H15.225V25.5084C13.6828 26.1319 12.6 27.6412 12.6 29.4C12.6 31.7166 14.4834 33.6 16.8 33.6C18.5653 33.6 20.0747 32.5172 20.6916 30.975H33.9084C34.5319 32.5172 36.0412 33.6 37.8 33.6C40.1166 33.6 42 31.7166 42 29.4C42 27.6347 40.9172 26.1253 39.375 25.5084V18.5916C40.9172 17.9681 42 16.4587 42 14.7C42 12.3834 40.1166 10.5 37.8 10.5C36.0347 10.5 34.5253 11.5828 33.9084 13.125H29.4V14.2012C30.0431 14.7787 30.5681 15.4809 30.9291 16.275ZM36.7631 14.5228C36.7821 14.3828 36.8291 14.2481 36.9013 14.1267C36.9736 14.0053 37.0696 13.8997 37.1836 13.8163C37.2976 13.7329 37.4273 13.6733 37.5649 13.6412C37.7024 13.6091 37.8451 13.605 37.9842 13.6293C38.1234 13.6536 38.2562 13.7058 38.3748 13.7826C38.4933 13.8595 38.5951 13.9594 38.6741 14.0766C38.7531 14.1937 38.8077 14.3255 38.8345 14.4642C38.8613 14.6029 38.8599 14.7456 38.8303 14.8837C38.8114 15.0237 38.7643 15.1585 38.6921 15.2799C38.6198 15.4013 38.5238 15.5068 38.4098 15.5903C38.2958 15.6737 38.1661 15.7332 38.0286 15.7654C37.891 15.7975 37.7484 15.8015 37.6092 15.7772C37.47 15.7529 37.3372 15.7008 37.2187 15.6239C37.1001 15.5471 36.9983 15.4471 36.9193 15.33C36.8403 15.2129 36.7858 15.081 36.7589 14.9423C36.7321 14.8036 36.7335 14.6609 36.7631 14.5228ZM17.8369 29.5772C17.8179 29.7172 17.7709 29.8519 17.6987 29.9733C17.6264 30.0947 17.5304 30.2003 17.4164 30.2837C17.3024 30.3671 17.1727 30.4267 17.0351 30.4588C16.8976 30.4909 16.7549 30.495 16.6158 30.4707C16.4766 30.4464 16.3438 30.3942 16.2252 30.3174C16.1067 30.2405 16.0049 30.1406 15.9259 30.0234C15.8469 29.9063 15.7923 29.7745 15.7655 29.6358C15.7387 29.4971 15.7401 29.3544 15.7697 29.2162C15.7886 29.0763 15.8357 28.9415 15.9079 28.8201C15.9802 28.6987 16.0762 28.5932 16.1902 28.5097C16.3042 28.4263 16.4339 28.3668 16.5714 28.3346C16.709 28.3025 16.8516 28.2985 16.9908 28.3228C17.13 28.3471 17.2628 28.3992 17.3813 28.4761C17.4999 28.5529 17.6017 28.6529 17.6807 28.77C17.7597 28.8871 17.8142 29.019 17.8411 29.1577C17.8679 29.2964 17.8665 29.4391 17.8369 29.5772ZM37.6228 30.4303C37.1306 30.345 36.7566 29.9119 36.7566 29.3934C36.7566 28.8159 37.2291 28.3434 37.8066 28.3434C38.325 28.3434 38.7581 28.7175 38.8434 29.2097V29.2162C38.85 29.2753 38.8566 29.3344 38.8566 29.3934C38.8566 29.9709 38.3841 30.4434 37.8066 30.4434C37.7475 30.4434 37.6819 30.4369 37.6228 30.4303Z" fill="white"/>
</g>
<defs>
<clipPath id="clip0_115_33">
<rect width="42" height="33.6" fill="white"/>
</clipPath>
</defs>
</svg>
