<svg width="50" height="47" viewBox="0 0 50 47" fill="none" xmlns="http://www.w3.org/2000/svg">
<circle cx="35" cy="32" r="15" fill="#079211"/>
<g clip-path="url(#clip0_115_39)">
<path d="M25.3173 0.0773533C24.2216 -0.238467 23.0808 0.399619 22.7649 1.49532L14.5149 30.3703C14.1991 31.466 14.8372 32.6068 15.9329 32.9227C17.0286 33.2385 18.1694 32.6004 18.4853 31.5047L26.7353 2.6297C27.0511 1.53399 26.413 0.393174 25.3173 0.0773533ZM30.5122 7.81817C29.7065 8.62384 29.7065 9.93224 30.5122 10.7379L36.2679 16.5L30.5058 22.2621C29.7001 23.0678 29.7001 24.3762 30.5058 25.1818C31.3114 25.9875 32.6198 25.9875 33.4255 25.1818L40.6442 17.9631C41.4499 17.1574 41.4499 15.849 40.6442 15.0434L33.4255 7.82462C32.6198 7.01895 31.3114 7.01895 30.5058 7.82462L30.5122 7.81817ZM10.7444 7.81817C9.93877 7.01251 8.63037 7.01251 7.82471 7.81817L0.605957 15.0369C-0.199707 15.8426 -0.199707 17.151 0.605957 17.9567L7.82471 25.1754C8.63037 25.9811 9.93877 25.9811 10.7444 25.1754C11.5501 24.3697 11.5501 23.0613 10.7444 22.2557L4.98233 16.5L10.7444 10.7379C11.5501 9.93224 11.5501 8.62384 10.7444 7.81817Z" fill="white"/>
</g>
<defs>
<clipPath id="clip0_115_39">
<rect width="41.25" height="33" fill="white"/>
</clipPath>
</defs>
</svg>
